<svg width="171" height="173" viewBox="0 0 171 173" fill="none" xmlns="http://www.w3.org/2000/svg">
<path d="M1.82397 84.6741C1.82397 37.9099 39.6953 0 86.412 0C133.129 0 171 37.9099 171 84.6741C171 131.438 133.129 169.348 86.412 169.348C39.6953 169.348 1.82397 131.438 1.82397 84.6741Z" fill="#DCDCDC"/>
<mask id="mask0_148_1338" style="mask-type:alpha" maskUnits="userSpaceOnUse" x="1" y="0" width="170" height="170">
<path d="M86.412 169.348C133.129 169.348 171 131.438 171 84.6741C171 37.9099 133.129 0 86.412 0C39.6953 0 1.82397 37.9099 1.82397 84.6741C1.82397 131.438 39.6953 169.348 86.412 169.348Z" fill="#DCDCDC"/>
</mask>
<g mask="url(#mask0_148_1338)">
<path d="M96.672 93.1187C104.479 93.1187 110.808 86.7834 110.808 78.9683C110.808 71.1533 104.479 64.8179 96.672 64.8179C88.8649 64.8179 82.536 71.1533 82.536 78.9683C82.536 86.7834 88.8649 93.1187 96.672 93.1187Z" fill="#CCCBCB"/>
<path d="M136.8 108.639C143.348 108.639 148.656 103.325 148.656 96.7705C148.656 90.2159 143.348 84.9024 136.8 84.9024C130.252 84.9024 124.944 90.2159 124.944 96.7705C124.944 103.325 130.252 108.639 136.8 108.639Z" fill="#C4C4C4"/>
<path d="M138.852 68.0132C144.267 68.0132 148.656 63.6194 148.656 58.1992C148.656 52.7791 144.267 48.3853 138.852 48.3853C133.437 48.3853 129.048 52.7791 129.048 58.1992C129.048 63.6194 133.437 68.0132 138.852 68.0132Z" fill="#C4C4C4"/>
<path d="M119.7 134.657C125.115 134.657 129.504 130.263 129.504 124.843C129.504 119.423 125.115 115.029 119.7 115.029C114.285 115.029 109.896 119.423 109.896 124.843C109.896 130.263 114.285 134.657 119.7 134.657Z" fill="#C4C4C4"/>
<path d="M69.084 89.9235C70.9728 89.9235 72.504 88.3908 72.504 86.5C72.504 84.6093 70.9728 83.0765 69.084 83.0765C67.1952 83.0765 65.664 84.6093 65.664 86.5C65.664 88.3908 67.1952 89.9235 69.084 89.9235Z" fill="#C4C4C4"/>
<path d="M74.1 93.1187C75.2333 93.1187 76.152 92.1991 76.152 91.0646C76.152 89.9302 75.2333 89.0106 74.1 89.0106C72.9667 89.0106 72.048 89.9302 72.048 91.0646C72.048 92.1991 72.9667 93.1187 74.1 93.1187Z" fill="#C4C4C4"/>
<path d="M54.72 68.9261C65.2973 68.9261 73.872 60.3428 73.872 49.7546C73.872 39.1665 65.2973 30.5831 54.72 30.5831C44.1426 30.5831 35.568 39.1665 35.568 49.7546C35.568 60.3428 44.1426 68.9261 54.72 68.9261Z" fill="#C4C4C4"/>
<path d="M29.412 113.66C41.6263 113.66 51.528 103.748 51.528 91.5211C51.528 79.2943 41.6263 69.3826 29.412 69.3826C17.1977 69.3826 7.29602 79.2943 7.29602 91.5211C7.29602 103.748 17.1977 113.66 29.412 113.66Z" fill="#C4C4C4"/>
<path d="M68.628 106.356C72.0279 106.356 74.784 103.597 74.784 100.194C74.784 96.7906 72.0279 94.0317 68.628 94.0317C65.2281 94.0317 62.472 96.7906 62.472 100.194C62.472 103.597 65.2281 106.356 68.628 106.356Z" fill="#C4C4C4"/>
<path d="M64.752 141.048C70.5444 141.048 75.24 136.347 75.24 130.549C75.24 124.751 70.5444 120.05 64.752 120.05C58.9597 120.05 54.264 124.751 54.264 130.549C54.264 136.347 58.9597 141.048 64.752 141.048Z" fill="#C4C4C4"/>
<path d="M42.864 125.528C45.1306 125.528 46.968 123.688 46.968 121.42C46.968 119.151 45.1306 117.311 42.864 117.311C40.5974 117.311 38.76 119.151 38.76 121.42C38.76 123.688 40.5974 125.528 42.864 125.528Z" fill="#C4C4C4"/>
<path d="M41.04 143.33C44.5658 143.33 47.424 140.469 47.424 136.939C47.424 133.41 44.5658 130.549 41.04 130.549C37.5142 130.549 34.656 133.41 34.656 136.939C34.656 140.469 37.5142 143.33 41.04 143.33Z" fill="#C4C4C4"/>
<path d="M100.548 26.9314C104.2 26.9314 107.16 23.9681 107.16 20.3127C107.16 16.6573 104.2 13.694 100.548 13.694C96.8963 13.694 93.936 16.6573 93.936 20.3127C93.936 23.9681 96.8963 26.9314 100.548 26.9314Z" fill="#C4C4C4"/>
<path d="M102.828 46.1029C104.465 46.1029 105.792 44.7745 105.792 43.1359C105.792 41.4973 104.465 40.1689 102.828 40.1689C101.191 40.1689 99.864 41.4973 99.864 43.1359C99.864 44.7745 101.191 46.1029 102.828 46.1029Z" fill="#C4C4C4"/>
<path d="M99.18 114.116C100.565 114.116 101.688 112.992 101.688 111.606C101.688 110.219 100.565 109.095 99.18 109.095C97.7949 109.095 96.672 110.219 96.672 111.606C96.672 112.992 97.7949 114.116 99.18 114.116Z" fill="#C4C4C4"/>
<path d="M104.424 186.694C116.261 186.694 125.856 177.089 125.856 165.24C125.856 153.392 116.261 143.786 104.424 143.786C92.5874 143.786 82.992 153.392 82.992 165.24C82.992 177.089 92.5874 186.694 104.424 186.694Z" fill="#C4C4C4"/>
<path d="M86.64 -2.73877H-88.464V172.544H86.64V-2.73877Z" fill="#535D74" fill-opacity="0.7"/>
</g>
</svg>
