<svg width="170" height="173" viewBox="0 0 170 173" fill="none" xmlns="http://www.w3.org/2000/svg">
<path d="M0 84.6741C0 37.9099 38.0558 0 85 0C131.944 0 170 37.9099 170 84.6741C170 131.438 131.944 169.348 85 169.348C38.0558 169.348 0 131.438 0 84.6741Z" fill="#DCDCDC"/>
<mask id="mask0_148_1295" style="mask-type:alpha" maskUnits="userSpaceOnUse" x="0" y="0" width="170" height="170">
<path d="M85 169.348C131.944 169.348 170 131.438 170 84.6741C170 37.9099 131.944 0 85 0C38.0558 0 0 37.9099 0 84.6741C0 131.438 38.0558 169.348 85 169.348Z" fill="#DCDCDC"/>
</mask>
<g mask="url(#mask0_148_1295)">
<path d="M95.31 93.1187C103.155 93.1187 109.515 86.7834 109.515 78.9683C109.515 71.1533 103.155 64.8179 95.31 64.8179C87.4649 64.8179 81.1051 71.1533 81.1051 78.9683C81.1051 86.7834 87.4649 93.1187 95.31 93.1187Z" fill="#CCCBCB"/>
<path d="M135.633 108.638C142.213 108.638 147.547 103.325 147.547 96.7704C147.547 90.2159 142.213 84.9023 135.633 84.9023C129.054 84.9023 123.72 90.2159 123.72 96.7704C123.72 103.325 129.054 108.638 135.633 108.638Z" fill="#C4C4C4"/>
<path d="M137.695 68.0132C143.136 68.0132 147.547 63.6193 147.547 58.1992C147.547 52.7791 143.136 48.3852 137.695 48.3852C132.254 48.3852 127.844 52.7791 127.844 58.1992C127.844 63.6193 132.254 68.0132 137.695 68.0132Z" fill="#C4C4C4"/>
<path d="M118.45 134.657C123.891 134.657 128.302 130.263 128.302 124.843C128.302 119.423 123.891 115.029 118.45 115.029C113.009 115.029 108.598 119.423 108.598 124.843C108.598 130.263 113.009 134.657 118.45 134.657Z" fill="#C4C4C4"/>
<path d="M67.5876 89.9234C69.4856 89.9234 71.0243 88.3907 71.0243 86.5C71.0243 84.6092 69.4856 83.0765 67.5876 83.0765C65.6896 83.0765 64.1509 84.6092 64.1509 86.5C64.1509 88.3907 65.6896 89.9234 67.5876 89.9234Z" fill="#C4C4C4"/>
<path d="M72.628 93.1187C73.7668 93.1187 74.69 92.199 74.69 91.0646C74.69 89.9301 73.7668 89.0105 72.628 89.0105C71.4892 89.0105 70.566 89.9301 70.566 91.0646C70.566 92.199 71.4892 93.1187 72.628 93.1187Z" fill="#C4C4C4"/>
<path d="M53.1536 68.9261C63.7825 68.9261 72.3989 60.3427 72.3989 49.7546C72.3989 39.1664 63.7825 30.5831 53.1536 30.5831C42.5248 30.5831 33.9084 39.1664 33.9084 49.7546C33.9084 60.3427 42.5248 68.9261 53.1536 68.9261Z" fill="#C4C4C4"/>
<path d="M27.7224 113.66C39.9962 113.66 49.9461 103.748 49.9461 91.5211C49.9461 79.2943 39.9962 69.3826 27.7224 69.3826C15.4486 69.3826 5.49866 79.2943 5.49866 91.5211C5.49866 103.748 15.4486 113.66 27.7224 113.66Z" fill="#C4C4C4"/>
<path d="M67.1294 106.356C70.5458 106.356 73.3154 103.597 73.3154 100.194C73.3154 96.7906 70.5458 94.0316 67.1294 94.0316C63.7129 94.0316 60.9434 96.7906 60.9434 100.194C60.9434 103.597 63.7129 106.356 67.1294 106.356Z" fill="#C4C4C4"/>
<path d="M63.2345 141.047C69.0551 141.047 73.7736 136.347 73.7736 130.549C73.7736 124.751 69.0551 120.05 63.2345 120.05C57.4139 120.05 52.6954 124.751 52.6954 130.549C52.6954 136.347 57.4139 141.047 63.2345 141.047Z" fill="#C4C4C4"/>
<path d="M41.2399 125.528C43.5175 125.528 45.3639 123.688 45.3639 121.42C45.3639 119.151 43.5175 117.311 41.2399 117.311C38.9623 117.311 37.1159 119.151 37.1159 121.42C37.1159 123.688 38.9623 125.528 41.2399 125.528Z" fill="#C4C4C4"/>
<path d="M39.407 143.33C42.95 143.33 45.8221 140.469 45.8221 136.939C45.8221 133.41 42.95 130.549 39.407 130.549C35.864 130.549 32.9919 133.41 32.9919 136.939C32.9919 140.469 35.864 143.33 39.407 143.33Z" fill="#C4C4C4"/>
<path d="M99.2049 26.9314C102.874 26.9314 105.849 23.9681 105.849 20.3126C105.849 16.6572 102.874 13.6939 99.2049 13.6939C95.5354 13.6939 92.5607 16.6572 92.5607 20.3126C92.5607 23.9681 95.5354 26.9314 99.2049 26.9314Z" fill="#C4C4C4"/>
<path d="M101.496 46.1029C103.141 46.1029 104.474 44.7745 104.474 43.1358C104.474 41.4972 103.141 40.1688 101.496 40.1688C99.851 40.1688 98.5175 41.4972 98.5175 43.1358C98.5175 44.7745 99.851 46.1029 101.496 46.1029Z" fill="#C4C4C4"/>
<path d="M97.8302 114.116C99.2221 114.116 100.35 112.992 100.35 111.606C100.35 110.219 99.2221 109.095 97.8302 109.095C96.4383 109.095 95.31 110.219 95.31 111.606C95.31 112.992 96.4383 114.116 97.8302 114.116Z" fill="#C4C4C4"/>
<path d="M103.1 186.694C114.994 186.694 124.636 177.089 124.636 165.24C124.636 153.391 114.994 143.786 103.1 143.786C91.2055 143.786 81.5634 153.391 81.5634 165.24C81.5634 177.089 91.2055 186.694 103.1 186.694Z" fill="#C4C4C4"/>
</g>
</svg>
