<svg width="173" height="173" viewBox="0 0 173 173" fill="none" xmlns="http://www.w3.org/2000/svg">
<path d="M1.82581 84.6741C1.82581 37.9099 39.7357 0 86.4999 0C133.264 0 171.174 37.9099 171.174 84.6741C171.174 131.438 133.264 169.348 86.4999 169.348C39.7357 169.348 1.82581 131.438 1.82581 84.6741Z" fill="#DCDCDC"/>
<mask id="mask0_148_1382" style="mask-type:alpha" maskUnits="userSpaceOnUse" x="1" y="0" width="171" height="170">
<path d="M86.4999 169.348C133.264 169.348 171.174 131.438 171.174 84.6741C171.174 37.9099 133.264 0 86.4999 0C39.7357 0 1.82581 37.9099 1.82581 84.6741C1.82581 131.438 39.7357 169.348 86.4999 169.348Z" fill="#DCDCDC"/>
</mask>
<g mask="url(#mask0_148_1382)">
<path d="M96.7705 93.1188C104.586 93.1188 110.921 86.7834 110.921 78.9684C110.921 71.1533 104.586 64.818 96.7705 64.818C88.9555 64.818 82.6201 71.1533 82.6201 78.9684C82.6201 86.7834 88.9555 93.1188 96.7705 93.1188Z" fill="#CCCBCB"/>
<path d="M136.939 108.639C143.494 108.639 148.807 103.325 148.807 96.7705C148.807 90.2159 143.494 84.9024 136.939 84.9024C130.385 84.9024 125.071 90.2159 125.071 96.7705C125.071 103.325 130.385 108.639 136.939 108.639Z" fill="#C4C4C4"/>
<path d="M138.993 68.0132C144.414 68.0132 148.807 63.6194 148.807 58.1992C148.807 52.7791 144.414 48.3853 138.993 48.3853C133.573 48.3853 129.179 52.7791 129.179 58.1992C129.179 63.6194 133.573 68.0132 138.993 68.0132Z" fill="#C4C4C4"/>
<path d="M119.822 134.657C125.242 134.657 129.636 130.263 129.636 124.843C129.636 119.423 125.242 115.029 119.822 115.029C114.402 115.029 110.008 119.423 110.008 124.843C110.008 130.263 114.402 134.657 119.822 134.657Z" fill="#C4C4C4"/>
<path d="M69.1543 89.9236C71.0451 89.9236 72.5778 88.3908 72.5778 86.5001C72.5778 84.6093 71.0451 83.0766 69.1543 83.0766C67.2636 83.0766 65.7308 84.6093 65.7308 86.5001C65.7308 88.3908 67.2636 89.9236 69.1543 89.9236Z" fill="#C4C4C4"/>
<path d="M74.1754 93.1188C75.3099 93.1188 76.2295 92.1992 76.2295 91.0647C76.2295 89.9303 75.3099 89.0106 74.1754 89.0106C73.041 89.0106 72.1213 89.9303 72.1213 91.0647C72.1213 92.1992 73.041 93.1188 74.1754 93.1188Z" fill="#C4C4C4"/>
<path d="M54.7758 68.9262C65.3639 68.9262 73.9473 60.3428 73.9473 49.7547C73.9473 39.1666 65.3639 30.5832 54.7758 30.5832C44.1876 30.5832 35.6042 39.1666 35.6042 49.7547C35.6042 60.3428 44.1876 68.9262 54.7758 68.9262Z" fill="#C4C4C4"/>
<path d="M29.442 113.66C41.6688 113.66 51.5805 103.748 51.5805 91.5212C51.5805 79.2944 41.6688 69.3826 29.442 69.3826C17.2152 69.3826 7.30347 79.2944 7.30347 91.5212C7.30347 103.748 17.2152 113.66 29.442 113.66Z" fill="#C4C4C4"/>
<path d="M68.6979 106.356C72.1012 106.356 74.8602 103.597 74.8602 100.194C74.8602 96.7907 72.1012 94.0317 68.6979 94.0317C65.2946 94.0317 62.5356 96.7907 62.5356 100.194C62.5356 103.597 65.2946 106.356 68.6979 106.356Z" fill="#C4C4C4"/>
<path d="M64.8179 141.048C70.6162 141.048 75.3166 136.347 75.3166 130.549C75.3166 124.751 70.6162 120.05 64.8179 120.05C59.0196 120.05 54.3192 124.751 54.3192 130.549C54.3192 136.347 59.0196 141.048 64.8179 141.048Z" fill="#C4C4C4"/>
<path d="M42.9076 125.528C45.1765 125.528 47.0158 123.688 47.0158 121.42C47.0158 119.151 45.1765 117.311 42.9076 117.311C40.6387 117.311 38.7994 119.151 38.7994 121.42C38.7994 123.688 40.6387 125.528 42.9076 125.528Z" fill="#C4C4C4"/>
<path d="M41.0818 143.33C44.6112 143.33 47.4723 140.469 47.4723 136.939C47.4723 133.41 44.6112 130.549 41.0818 130.549C37.5524 130.549 34.6913 133.41 34.6913 136.939C34.6913 140.469 37.5524 143.33 41.0818 143.33Z" fill="#C4C4C4"/>
<path d="M100.65 26.9314C104.306 26.9314 107.269 23.9681 107.269 20.3127C107.269 16.6573 104.306 13.694 100.65 13.694C96.9949 13.694 94.0316 16.6573 94.0316 20.3127C94.0316 23.9681 96.9949 26.9314 100.65 26.9314Z" fill="#C4C4C4"/>
<path d="M102.933 46.103C104.571 46.103 105.9 44.7746 105.9 43.136C105.9 41.4973 104.571 40.1689 102.933 40.1689C101.294 40.1689 99.9657 41.4973 99.9657 43.136C99.9657 44.7746 101.294 46.103 102.933 46.103Z" fill="#C4C4C4"/>
<path d="M99.2811 114.116C100.668 114.116 101.792 112.992 101.792 111.606C101.792 110.219 100.668 109.095 99.2811 109.095C97.8945 109.095 96.7705 110.219 96.7705 111.606C96.7705 112.992 97.8945 114.116 99.2811 114.116Z" fill="#C4C4C4"/>
<path d="M104.53 186.694C116.379 186.694 125.984 177.089 125.984 165.24C125.984 153.392 116.379 143.786 104.53 143.786C92.6817 143.786 83.0765 153.392 83.0765 165.24C83.0765 177.089 92.6817 186.694 104.53 186.694Z" fill="#C4C4C4"/>
<path d="M104.987 201.301C167.255 201.301 217.734 151.231 217.734 89.4671C217.734 27.703 167.255 -22.3667 104.987 -22.3667C42.7185 -22.3667 -7.75989 27.703 -7.75989 89.4671C-7.75989 151.231 42.7185 201.301 104.987 201.301Z" fill="#535D74" fill-opacity="0.7"/>
</g>
</svg>
