<svg width="171" height="173" viewBox="0 0 171 173" fill="none" xmlns="http://www.w3.org/2000/svg">
<path d="M0 84.6741C0 37.9099 37.8713 0 84.588 0C131.305 0 169.176 37.9099 169.176 84.6741C169.176 131.438 131.305 169.348 84.588 169.348C37.8713 169.348 0 131.438 0 84.6741Z" fill="#DCDCDC"/>
<mask id="mask0_148_1273" style="mask-type:alpha" maskUnits="userSpaceOnUse" x="0" y="0" width="170" height="170">
<path d="M84.588 169.348C131.305 169.348 169.176 131.438 169.176 84.6741C169.176 37.9099 131.305 0 84.588 0C37.8713 0 0 37.9099 0 84.6741C0 131.438 37.8713 169.348 84.588 169.348Z" fill="#DCDCDC"/>
</mask>
<g mask="url(#mask0_148_1273)">
<path d="M94.848 93.1188C102.655 93.1188 108.984 86.7834 108.984 78.9684C108.984 71.1533 102.655 64.818 94.848 64.818C87.0409 64.818 80.712 71.1533 80.712 78.9684C80.712 86.7834 87.0409 93.1188 94.848 93.1188Z" fill="#CCCBCB"/>
<path d="M134.976 108.639C141.524 108.639 146.832 103.325 146.832 96.7705C146.832 90.2159 141.524 84.9024 134.976 84.9024C128.428 84.9024 123.12 90.2159 123.12 96.7705C123.12 103.325 128.428 108.639 134.976 108.639Z" fill="#C4C4C4"/>
<path d="M137.028 68.0132C142.443 68.0132 146.832 63.6194 146.832 58.1992C146.832 52.7791 142.443 48.3853 137.028 48.3853C131.613 48.3853 127.224 52.7791 127.224 58.1992C127.224 63.6194 131.613 68.0132 137.028 68.0132Z" fill="#C4C4C4"/>
<path d="M117.876 134.657C123.291 134.657 127.68 130.263 127.68 124.843C127.68 119.423 123.291 115.029 117.876 115.029C112.461 115.029 108.072 119.423 108.072 124.843C108.072 130.263 112.461 134.657 117.876 134.657Z" fill="#C4C4C4"/>
<path d="M67.26 89.9235C69.1488 89.9235 70.68 88.3908 70.68 86.5C70.68 84.6093 69.1488 83.0765 67.26 83.0765C65.3712 83.0765 63.84 84.6093 63.84 86.5C63.84 88.3908 65.3712 89.9235 67.26 89.9235Z" fill="#C4C4C4"/>
<path d="M72.276 93.1188C73.4093 93.1188 74.328 92.1992 74.328 91.0647C74.328 89.9303 73.4093 89.0106 72.276 89.0106C71.1427 89.0106 70.224 89.9303 70.224 91.0647C70.224 92.1992 71.1427 93.1188 72.276 93.1188Z" fill="#C4C4C4"/>
<path d="M52.896 68.9261C63.4734 68.9261 72.048 60.3428 72.048 49.7546C72.048 39.1665 63.4734 30.5831 52.896 30.5831C42.3186 30.5831 33.744 39.1665 33.744 49.7546C33.744 60.3428 42.3186 68.9261 52.896 68.9261Z" fill="#C4C4C4"/>
<path d="M27.588 113.66C39.8023 113.66 49.704 103.748 49.704 91.5212C49.704 79.2944 39.8023 69.3826 27.588 69.3826C15.3737 69.3826 5.472 79.2944 5.472 91.5212C5.472 103.748 15.3737 113.66 27.588 113.66Z" fill="#C4C4C4"/>
<path d="M66.804 106.356C70.2039 106.356 72.96 103.597 72.96 100.194C72.96 96.7907 70.2039 94.0317 66.804 94.0317C63.4041 94.0317 60.648 96.7907 60.648 100.194C60.648 103.597 63.4041 106.356 66.804 106.356Z" fill="#C4C4C4"/>
<path d="M62.928 141.048C68.7204 141.048 73.416 136.347 73.416 130.549C73.416 124.751 68.7204 120.05 62.928 120.05C57.1356 120.05 52.44 124.751 52.44 130.549C52.44 136.347 57.1356 141.048 62.928 141.048Z" fill="#C4C4C4"/>
<path d="M41.04 125.528C43.3066 125.528 45.144 123.688 45.144 121.42C45.144 119.151 43.3066 117.311 41.04 117.311C38.7734 117.311 36.936 119.151 36.936 121.42C36.936 123.688 38.7734 125.528 41.04 125.528Z" fill="#C4C4C4"/>
<path d="M39.216 143.33C42.7418 143.33 45.6 140.469 45.6 136.939C45.6 133.41 42.7418 130.549 39.216 130.549C35.6902 130.549 32.832 133.41 32.832 136.939C32.832 140.469 35.6902 143.33 39.216 143.33Z" fill="#C4C4C4"/>
<path d="M98.724 26.9314C102.376 26.9314 105.336 23.9681 105.336 20.3127C105.336 16.6573 102.376 13.694 98.724 13.694C95.0723 13.694 92.112 16.6573 92.112 20.3127C92.112 23.9681 95.0723 26.9314 98.724 26.9314Z" fill="#C4C4C4"/>
<path d="M101.004 46.1029C102.641 46.1029 103.968 44.7745 103.968 43.1359C103.968 41.4973 102.641 40.1689 101.004 40.1689C99.367 40.1689 98.04 41.4973 98.04 43.1359C98.04 44.7745 99.367 46.1029 101.004 46.1029Z" fill="#C4C4C4"/>
<path d="M97.356 114.116C98.7411 114.116 99.864 112.992 99.864 111.606C99.864 110.219 98.7411 109.095 97.356 109.095C95.9709 109.095 94.848 110.219 94.848 111.606C94.848 112.992 95.9709 114.116 97.356 114.116Z" fill="#C4C4C4"/>
<path d="M102.6 186.694C114.437 186.694 124.032 177.089 124.032 165.24C124.032 153.392 114.437 143.786 102.6 143.786C90.7634 143.786 81.168 153.392 81.168 165.24C81.168 177.089 90.7634 186.694 102.6 186.694Z" fill="#C4C4C4"/>
<path d="M79.5456 -10.753C75.4662 -9.76204 75.3075 -4.20462 79.0234 -2.24372C81.2779 -1.0541 83.5041 0.231497 85.6965 1.61419C122.566 42.208 132.9 85.1589 111.061 136.435C102.153 150.589 94.8079 162.126 82.1986 170.504C78.5469 172.587 78.9076 178.143 83.0299 178.982C121.455 186.804 162.417 170.694 184.562 135.508C213.151 90.0833 199.552 30.0669 154.187 1.45761C131.068 -13.1227 104.16 -16.7319 79.5456 -10.753Z" fill="#535D74" fill-opacity="0.7"/>
</g>
</svg>
