<svg width="172" height="173" viewBox="0 0 172 173" fill="none" xmlns="http://www.w3.org/2000/svg">
<path d="M1.83466 84.6741C1.83466 37.9099 39.9275 0 86.9173 0C133.907 0 172 37.9099 172 84.6741C172 131.438 133.907 169.348 86.9173 169.348C39.9275 169.348 1.83466 131.438 1.83466 84.6741Z" fill="#DCDCDC"/>
<mask id="mask0_148_1316" style="mask-type:alpha" maskUnits="userSpaceOnUse" x="1" y="0" width="171" height="170">
<path d="M86.9173 169.348C133.907 169.348 172 131.438 172 84.6741C172 37.9099 133.907 0 86.9173 0C39.9275 0 1.83466 37.9099 1.83466 84.6741C1.83466 131.438 39.9275 169.348 86.9173 169.348Z" fill="#DCDCDC"/>
</mask>
<g mask="url(#mask0_148_1316)">
<path d="M97.2373 93.1187C105.09 93.1187 111.456 86.7834 111.456 78.9683C111.456 71.1533 105.09 64.8179 97.2373 64.8179C89.3846 64.8179 83.0187 71.1533 83.0187 78.9683C83.0187 86.7834 89.3846 93.1187 97.2373 93.1187Z" fill="#CCCBCB"/>
<path d="M137.6 108.638C144.186 108.638 149.525 103.325 149.525 96.7704C149.525 90.2159 144.186 84.9023 137.6 84.9023C131.014 84.9023 125.675 90.2159 125.675 96.7704C125.675 103.325 131.014 108.638 137.6 108.638Z" fill="#C4C4C4"/>
<path d="M139.664 68.0132C145.11 68.0132 149.525 63.6193 149.525 58.1992C149.525 52.7791 145.11 48.3852 139.664 48.3852C134.218 48.3852 129.803 52.7791 129.803 58.1992C129.803 63.6193 134.218 68.0132 139.664 68.0132Z" fill="#C4C4C4"/>
<path d="M120.4 134.657C125.846 134.657 130.261 130.263 130.261 124.843C130.261 119.423 125.846 115.029 120.4 115.029C114.954 115.029 110.539 119.423 110.539 124.843C110.539 130.263 114.954 134.657 120.4 134.657Z" fill="#C4C4C4"/>
<path d="M69.488 89.9235C71.3878 89.9235 72.928 88.3908 72.928 86.5C72.928 84.6093 71.3878 83.0765 69.488 83.0765C67.5881 83.0765 66.048 84.6093 66.048 86.5C66.048 88.3908 67.5881 89.9235 69.488 89.9235Z" fill="#C4C4C4"/>
<path d="M74.5334 93.1187C75.6733 93.1187 76.5974 92.1991 76.5974 91.0646C76.5974 89.9302 75.6733 89.0106 74.5334 89.0106C73.3934 89.0106 72.4694 89.9302 72.4694 91.0646C72.4694 92.1991 73.3934 93.1187 74.5334 93.1187Z" fill="#C4C4C4"/>
<path d="M55.04 68.9261C65.6792 68.9261 74.304 60.3428 74.304 49.7546C74.304 39.1665 65.6792 30.5831 55.04 30.5831C44.4008 30.5831 35.776 39.1665 35.776 49.7546C35.776 60.3428 44.4008 68.9261 55.04 68.9261Z" fill="#C4C4C4"/>
<path d="M29.584 113.66C41.8698 113.66 51.8293 103.748 51.8293 91.5211C51.8293 79.2943 41.8698 69.3826 29.584 69.3826C17.2983 69.3826 7.33868 79.2943 7.33868 91.5211C7.33868 103.748 17.2983 113.66 29.584 113.66Z" fill="#C4C4C4"/>
<path d="M69.0293 106.356C72.4491 106.356 75.2213 103.597 75.2213 100.194C75.2213 96.7906 72.4491 94.0317 69.0293 94.0317C65.6096 94.0317 62.8373 96.7906 62.8373 100.194C62.8373 103.597 65.6096 106.356 69.0293 106.356Z" fill="#C4C4C4"/>
<path d="M65.1306 141.047C70.9569 141.047 75.68 136.347 75.68 130.549C75.68 124.751 70.9569 120.05 65.1306 120.05C59.3044 120.05 54.5813 124.751 54.5813 130.549C54.5813 136.347 59.3044 141.047 65.1306 141.047Z" fill="#C4C4C4"/>
<path d="M43.1146 125.528C45.3945 125.528 47.2426 123.688 47.2426 121.42C47.2426 119.151 45.3945 117.311 43.1146 117.311C40.8348 117.311 38.9866 119.151 38.9866 121.42C38.9866 123.688 40.8348 125.528 43.1146 125.528Z" fill="#C4C4C4"/>
<path d="M41.28 143.33C44.8264 143.33 47.7013 140.469 47.7013 136.939C47.7013 133.41 44.8264 130.549 41.28 130.549C37.7336 130.549 34.8586 133.41 34.8586 136.939C34.8586 140.469 37.7336 143.33 41.28 143.33Z" fill="#C4C4C4"/>
<path d="M101.136 26.9314C104.809 26.9314 107.787 23.9681 107.787 20.3126C107.787 16.6572 104.809 13.6939 101.136 13.6939C97.463 13.6939 94.4854 16.6572 94.4854 20.3126C94.4854 23.9681 97.463 26.9314 101.136 26.9314Z" fill="#C4C4C4"/>
<path d="M103.429 46.1029C105.076 46.1029 106.411 44.7745 106.411 43.1358C106.411 41.4972 105.076 40.1688 103.429 40.1688C101.783 40.1688 100.448 41.4972 100.448 43.1358C100.448 44.7745 101.783 46.1029 103.429 46.1029Z" fill="#C4C4C4"/>
<path d="M99.76 114.116C101.153 114.116 102.283 112.992 102.283 111.606C102.283 110.219 101.153 109.095 99.76 109.095C98.3667 109.095 97.2373 110.219 97.2373 111.606C97.2373 112.992 98.3667 114.116 99.76 114.116Z" fill="#C4C4C4"/>
<path d="M105.035 186.694C116.94 186.694 126.592 177.089 126.592 165.24C126.592 153.391 116.94 143.786 105.035 143.786C93.1288 143.786 83.4773 153.391 83.4773 165.24C83.4773 177.089 93.1288 186.694 105.035 186.694Z" fill="#C4C4C4"/>
<path d="M96.3081 182.322C100.37 181.174 100.314 175.615 96.503 173.799C94.1909 172.697 91.904 171.499 89.6464 170.201C51.0147 131.062 38.9633 88.5422 58.9249 36.4604C67.3295 21.973 74.265 10.1612 86.6137 1.30261C90.2032 -0.920427 89.6253 -6.45766 85.4496 -7.13697C46.5258 -13.4689 5.97876 4.21119 -14.9149 40.2263C-41.8884 86.7214 -25.8927 146.168 20.8125 173.004C44.615 186.68 71.8001 189.247 96.3081 182.322Z" fill="#535D74" fill-opacity="0.7"/>
</g>
</svg>
